<?xml version="1.0" encoding="UTF-8"?>
<svg width="55px" height="154px" viewBox="0 0 55 154" version="1.1" xmlns="http://www.w3.org/2000/svg" xmlns:xlink="http://www.w3.org/1999/xlink">
    <title>3</title>
    <g id="武进名人全息馆20230712✅" stroke="none" stroke-width="1" fill="none" fill-rule="evenodd" opacity="0.8">
        <g id="武进名人全息馆首页" transform="translate(-886.000000, -694.000000)">
            <g id="content" transform="translate(244.000000, 340.000000)">
                <g id="1备份-3" transform="translate(642.000000, 356.000000)">
                    <g id="4" transform="translate(-0.000000, 0.000000)">
                        <g id="3" transform="translate(-0.000000, 0.000000)">
                            <path d="M36.7584774,2.9220001 C31.0992592,2.9220001 27.0012046,0 27.0012046,0 C27.0012046,0 23.5439981,2.9220001 17.2415226,2.9220001 C10.9438656,2.9220001 7,6.65180498 7,11.2517379 L7,75.6172396 L7,138.750659 C7,143.348195 10.9438656,147.080397 17.2415226,147.080397 C23.5439981,147.080397 27.0012046,150 27.0012046,150 C27.0012046,150 31.0992592,147.080397 36.7584774,147.080397 C42.4152864,147.080397 47,143.348195 47,138.750659 L47,75.6172396 L47,11.2517379 C47,6.65180498 42.4152864,2.9220001 36.7584774,2.9220001 Z" id="Stroke-1" stroke="#D5B270" stroke-width="1.8"></path>
                            <path d="M27.123833,147.147514 C24.5893513,146.090417 20.7683551,145.107627 15.7933506,144.851143 C11.0183099,144.601851 9.22104439,140.838487 9.22104439,138.451028 L9.22104439,12.0571456 C9.22104439,8.84749988 11.6663856,5.44609042 15.9860869,5.32623807 C21.0695055,5.18720936 24.7194483,3.89999521 27.123833,2.61278105 C29.4848521,4.34824296 33.8141902,5.18720936 38.2085768,5.35739968 C41.9524785,5.50361954 44.7784738,8.69169184 44.7784738,12.0571456 L44.7784738,138.451028 C44.7784738,141.327485 41.9500693,144.601851 38.2085768,144.851143 C33.5901343,145.155568 29.7546829,145.865094 27.123833,147.147514 Z" id="Stroke-3" stroke="#D5B270" stroke-width="0.612" fill="#600A0A" opacity="0.8"></path>
                            <g id="编组" transform="translate(-0.000000, 121.000000)" fill="#D5B270">
                                <path d="M51.3774738,12.9091198 C49.2848153,10.3193518 46.0665755,8.65904036 42.4611035,8.65904036 C38.8576379,8.65904036 35.6373917,10.3193518 33.5447332,12.9091198 C33.5447332,12.9091198 33.5467396,12.9091198 33.5467396,12.9111058 C33.4243502,12.8535113 33.2919289,12.8157769 33.1675331,12.7621544 C32.9046968,12.6489514 32.6378477,12.5436924 32.3669859,12.4483635 C32.2466028,12.4046711 32.1322389,12.3470766 32.0118559,12.3073562 C32.0399453,12.2676358 32.0680347,12.2239434 32.1001368,12.1822371 C32.3449156,11.8644741 32.6017328,11.5586273 32.8705882,11.2666826 C32.9167351,11.2190181 32.9548564,11.1653956 33.0010032,11.1177312 C33.3119927,10.7900381 33.6430461,10.4841913 33.9841313,10.1942326 C34.1065207,10.0909596 34.2329229,9.99563076 34.3593251,9.89632984 C34.594072,9.71163012 34.8348381,9.53090245 35.0816233,9.36209088 C35.2280894,9.26080394 35.3785682,9.16348904 35.5310534,9.06816015 C35.7778386,8.91523673 36.030643,8.77224341 36.2874601,8.63520813 C36.4379389,8.55378138 36.5844049,8.47036861 36.7388965,8.39688592 C37.0699498,8.23403241 37.4110351,8.09103908 37.7581395,7.95797585 C37.8383949,7.92818557 37.9166439,7.8884652 37.9989056,7.85867493 C39.4053808,7.35224023 40.9121751,7.08214172 42.4611035,7.08214172 C46.6223438,7.08214172 50.4725946,9.01850969 52.9243958,12.3033842 C52.3947104,12.4761678 51.8790698,12.6787417 51.3774738,12.9091198 L51.3774738,12.9091198 Z M48.8614683,14.3986336 L48.8634747,14.3966476 C47.3005016,12.6370353 45.0092111,11.524865 42.4611035,11.524865 C39.9129959,11.524865 37.6237118,12.6370353 36.0607387,14.3966476 C36.0326493,14.3748014 35.9985408,14.3589133 35.9684451,14.337067 C35.7718194,14.1920877 35.5611491,14.0689546 35.3564979,13.9358913 C35.1438212,13.79687 34.9391701,13.6439466 34.7164615,13.5168414 L34.7224806,13.5188275 C36.5783858,11.3361932 39.3592339,9.9459803 42.4611035,9.9459803 C45.5649795,9.9459803 48.3438212,11.3361932 50.2017328,13.5188275 C49.7402645,13.7869399 49.2908345,14.0788847 48.8614683,14.3986336 L48.8614683,14.3986336 Z M46.7326949,16.3350016 C45.6994072,15.1433905 44.1665299,14.3887035 42.4611035,14.3887035 C40.7556772,14.3887035 39.2227998,15.1433905 38.1915185,16.3350016 L38.1935249,16.3369876 C38.0069311,16.1284557 37.7982672,15.943756 37.6016416,15.7491262 C37.4491564,15.5981888 37.3026904,15.4373213 37.144186,15.2943279 C37.1160967,15.2665237 37.0920201,15.2367334 37.0599179,15.2089291 C37.0619243,15.2109152 37.0639307,15.2129012 37.0659371,15.2148872 C38.3901505,13.7412615 40.3182855,12.8118049 42.4611035,12.8118049 C44.6039216,12.8118049 46.5340629,13.7412615 47.8562699,15.2148872 C47.4630187,15.5664125 47.0858185,15.9397839 46.7326949,16.3350016 L46.7326949,16.3350016 Z M27.4994984,14.4542421 C23.8960328,14.4542421 20.6757866,16.1145535 18.5831281,18.7043216 C18.5831281,18.7043216 18.5851345,18.7043216 18.5851345,18.7063076 C18.0875513,18.4759295 17.573917,18.2753416 17.0482444,18.102558 C17.0783402,18.0628376 17.1064295,18.0191452 17.1385317,17.9774388 C17.3833105,17.6596759 17.6401277,17.353829 17.9089831,17.0618843 C17.95513,17.0142199 17.9932513,16.9605974 18.0393981,16.912933 C18.3503876,16.5852399 18.6814409,16.2793931 19.0225262,15.9894344 C19.1449156,15.8861614 19.2713178,15.7908325 19.39772,15.6915316 C19.6324669,15.5068319 19.873233,15.3261042 20.1200182,15.1572927 C20.2664843,15.0560057 20.4169631,14.9586908 20.5694482,14.8633619 C20.8162335,14.7104385 21.0690378,14.5654592 21.3238486,14.4304099 C21.4763338,14.3489832 21.6227998,14.2655704 21.7772914,14.1920877 C22.1083447,14.0292342 22.44943,13.8862409 22.7965344,13.7531776 C22.8767898,13.7233874 22.9550388,13.683667 23.0373005,13.6538767 C23.4546284,13.5029393 23.8839945,13.3798062 24.3173735,13.2725612 C24.69658,13.1772323 25.0838121,13.1116937 25.4690378,13.0521131 C25.6094847,13.0302669 25.7459188,12.9945186 25.8863657,12.9786304 C26.9557684,12.8495392 28.0452348,12.8495392 29.1146375,12.9786304 C29.2550844,12.9945186 29.3895121,13.0302669 29.5259462,13.0521131 C29.9151847,13.1116937 30.3024168,13.1772323 30.6816233,13.2725612 C31.1150023,13.3798062 31.5423621,13.5029393 31.9596899,13.6538767 C32.0459644,13.683667 32.1262198,13.7233874 32.2104879,13.7571497 C32.5535796,13.8882269 32.8926585,14.0312202 33.2217054,14.1920877 C33.3741906,14.2655704 33.5246694,14.3489832 33.6731418,14.4284239 C33.9319653,14.5654592 34.1847697,14.7104385 34.4335613,14.865348 C34.5840401,14.9586908 34.7305062,15.0560057 34.8749658,15.1553066 C35.1277702,15.3261042 35.3705426,15.5088179 35.6113087,15.6994757 C35.7316917,15.7948046 35.8560876,15.8861614 35.9724578,15.9854623 C36.3175559,16.2793931 36.6506156,16.5872259 36.9656179,16.918891 C36.9997264,16.9526533 37.0298222,16.9923737 37.0599179,17.028122 C37.3428181,17.3319828 37.6116735,17.6517318 37.8664843,17.9833969 C37.8945736,18.0231173 37.922663,18.0648236 37.9527588,18.102558 C37.4270862,18.2753416 36.9134519,18.4759295 36.4158687,18.7043216 C34.3232102,16.1145535 31.1049704,14.4542421 27.4994984,14.4542421 L27.4994984,14.4542421 Z M33.8998632,20.1918494 L33.9018696,20.1918494 C32.3388965,18.4322371 30.047606,17.3200667 27.4994984,17.3200667 C24.9513908,17.3200667 22.6601003,18.4322371 21.0971272,20.1918494 C20.6677611,19.8740864 20.2203374,19.5801557 19.7548564,19.3120432 C19.7568627,19.3120432 19.7588691,19.3140292 19.7588691,19.3140292 C21.6167807,17.131395 24.3976288,15.7411821 27.4994984,15.7411821 C30.6033744,15.7411821 33.3822161,17.131395 35.2401277,19.3140292 C34.776653,19.5821417 34.3292294,19.8760724 33.8998632,20.1918494 L33.8998632,20.1918494 Z M31.7710898,22.1302034 C30.7378021,20.9385923 29.2049248,20.1839053 27.4994984,20.1839053 C25.794072,20.1839053 24.2611947,20.9385923 23.2299134,22.1302034 L23.2319197,22.1321894 C22.8747834,21.7329997 22.4955768,21.3576422 22.0983128,21.0041309 C22.1003192,21.0061169 22.1023256,21.008103 22.104332,21.010089 C23.4285454,19.5364633 25.354674,18.6070067 27.4994984,18.6070067 C29.6423165,18.6070067 31.5724578,19.5364633 32.8946648,21.010089 C32.5014136,21.3616142 32.1242134,21.7349857 31.7710898,22.1302034 L31.7710898,22.1302034 Z M8.26830825,16.3350016 C8.26830825,16.3350016 8.26830825,16.3369876 8.27031464,16.3369876 C7.91317829,15.9377979 7.53397173,15.5624404 7.13670771,15.2089291 C7.13871409,15.2109152 7.14072047,15.2129012 7.14272686,15.2148872 C8.46493388,13.7412615 10.3930689,12.8118049 12.5378933,12.8118049 C14.6807114,12.8118049 16.6088463,13.7412615 17.9330597,15.2148872 C17.9049704,15.2387194 17.8829001,15.2685097 17.8548108,15.2923419 C17.6922937,15.4393073 17.5458276,15.6001748 17.3913361,15.7550842 C17.1967168,15.947728 16.9920657,16.1304417 16.8094847,16.3350016 C15.776197,15.1433905 14.2433197,14.3887035 12.5378933,14.3887035 C10.8324669,14.3887035 9.2995896,15.1433905 8.26830825,16.3350016 L8.26830825,16.3350016 Z M6.13552212,14.3966476 C5.70615595,14.0788847 5.25873233,13.7849539 4.79325125,13.5168414 C4.79525764,13.5168414 4.79726402,13.5188275 4.79726402,13.5188275 C6.65517556,11.3361932 9.43602371,9.9459803 12.5378933,9.9459803 C15.6397629,9.9459803 18.420611,11.3361932 20.2785226,13.5188275 C20.0618331,13.6459326 19.8591883,13.794884 19.6505244,13.9319193 C19.4418605,14.0669685 19.2291838,14.1920877 19.0285454,14.3390531 C18.9984496,14.3589133 18.9683539,14.3767874 18.9382581,14.3986336 L18.9402645,14.3966476 C17.3772914,12.6370353 15.0860009,11.524865 12.5378933,11.524865 C9.98978568,11.524865 7.69849521,12.6370353 6.13552212,14.3966476 L6.13552212,14.3966476 Z M3.62152303,12.9091198 C3.62152303,12.9091198 3.62352941,12.9091198 3.62352941,12.9111058 C3.12193342,12.6787417 2.60428637,12.4761678 2.074601,12.3033842 C4.52640219,9.01850969 8.37665299,7.08214172 12.5378933,7.08214172 C14.0868217,7.08214172 15.5916097,7.35224023 16.9980848,7.85867493 C17.0843593,7.8884652 17.1646147,7.92818557 17.2488828,7.96194789 C17.5919745,8.0930251 17.9310534,8.23601843 18.2601003,8.39688592 C18.4125855,8.47036861 18.5630643,8.55378138 18.7115367,8.63322212 C18.9703602,8.77224341 19.225171,8.91523673 19.4719562,9.07014617 C19.6204286,9.16348904 19.768901,9.26080394 19.9133607,9.36010486 C20.1661651,9.53090245 20.4089375,9.71361614 20.6497036,9.90427391 C20.7700866,9.9996028 20.8944824,10.0909596 21.0108527,10.1902606 C21.3559508,10.4841913 21.6890105,10.7920241 22.0040128,11.1236892 C22.0381213,11.1574515 22.0682171,11.1971719 22.0983128,11.2329202 C22.381213,11.5367811 22.6500684,11.85653 22.9048792,12.1881951 C22.9329685,12.2279155 22.9610579,12.2676358 22.9911537,12.3073562 C22.8667579,12.3470766 22.752394,12.4046711 22.6320109,12.4483635 C22.3611491,12.5436924 22.0943,12.6489514 21.8314637,12.7621544 C21.7090743,12.8137909 21.576653,12.8535113 21.4542636,12.9091198 C19.3616051,10.3193518 16.1413589,8.65904036 12.5378933,8.65904036 C8.93442772,8.65904036 5.71418149,10.3193518 3.62152303,12.9091198 L3.62152303,12.9091198 Z M32.3529412,9.95988243 C32.1583219,10.1525262 31.9536708,10.3352399 31.7710898,10.5397998 C30.7378021,9.35017477 29.2049248,8.59350175 27.4994984,8.59350175 C25.794072,8.59350175 24.2611947,9.35017477 23.2299134,10.5397998 L23.2319197,10.5417858 C23.045326,10.3332539 22.8366621,10.1485542 22.6400365,9.95392437 C22.4875513,9.80100095 22.3410853,9.64211948 22.1825809,9.49912615 C22.1544916,9.47330791 22.1284086,9.44153162 22.0983128,9.41571338 C22.1003192,9.41571338 22.1023256,9.4176994 22.104332,9.41968541 C23.4285454,7.94605974 25.354674,7.01660311 27.4994984,7.01660311 C29.6423165,7.01660311 31.5724578,7.94605974 32.8946648,9.41968541 C32.8665755,9.44351764 32.8445052,9.47330791 32.8164159,9.49912615 C32.6538988,9.6441055 32.5074327,9.80695901 32.3529412,9.95988243 L32.3529412,9.95988243 Z M33.9901505,8.54385129 C33.9600547,8.56371147 33.929959,8.58158564 33.8998632,8.60343184 C33.8998632,8.60144582 33.9018696,8.60144582 33.9018696,8.60144582 C32.3388965,6.84183349 30.047606,5.72966317 27.4994984,5.72966317 C24.9513908,5.72966317 22.6601003,6.84183349 21.0971272,8.60144582 C21.0710442,8.57959962 21.0369357,8.56371147 21.0068399,8.54186527 C20.8102143,8.39887194 20.599544,8.27375278 20.3968992,8.14068955 C20.1802098,8.00166826 19.977565,7.84874484 19.7548564,7.72163966 C19.7568627,7.72163966 19.7588691,7.72362568 19.7588691,7.72362568 C21.6167807,5.54099142 24.3976288,4.15077852 27.4994984,4.15077852 C30.6033744,4.15077852 33.3822161,5.54099142 35.2401277,7.72362568 C35.0234382,7.85073085 34.8207934,7.99968224 34.6121295,8.13671751 C34.4034656,8.27176676 34.1907889,8.39887194 33.9901505,8.54385129 L33.9901505,8.54385129 Z M17.0382125,6.5081824 C19.4880073,3.22330791 23.3382581,1.28693994 27.4994984,1.28693994 C31.6607387,1.28693994 35.5109895,3.22330791 37.9607843,6.5081824 C37.8363885,6.54988878 37.7180119,6.60748332 37.5936161,6.65316174 C37.3227542,6.74849063 37.0579115,6.8537496 36.7930689,6.96695265 C36.6706794,7.01858913 36.5382581,7.0583095 36.4158687,7.11391802 C34.3232102,4.52414998 31.1049704,2.86383858 27.4994984,2.86383858 C23.8960328,2.86383858 20.6757866,4.52414998 18.5831281,7.11590404 C18.5831281,7.11590404 18.5851345,7.11590404 18.5851345,7.11590404 C18.4627451,7.0583095 18.3303238,7.02057515 18.205928,6.96695265 C17.9430917,6.8537496 17.6762426,6.74849063 17.4053808,6.65316174 C17.280985,6.60748332 17.1626083,6.54988878 17.0382125,6.5081824 L17.0382125,6.5081824 Z M54.5154583,12.3212583 C51.8670315,8.23403241 47.3606931,5.79321576 42.4611035,5.79321576 C41.3776562,5.79321576 40.3162791,5.93223705 39.2849977,6.16460121 C36.6084815,2.30378138 32.2466028,0 27.4994984,0 C22.752394,0 18.3925217,2.30378138 15.7139991,6.16460121 C14.6827177,5.93223705 13.623347,5.79321576 12.5378933,5.79321576 C7.63830369,5.79321576 3.13196534,8.23403241 0.483538532,12.3212583 L0,13.0680013 L0.866757866,13.2924214 C4.03483812,14.1086749 6.75950752,16.0688751 8.53515732,18.8115666 L8.78996808,19.2047982 L9.24742362,19.0876231 C11.3842225,18.53551 13.6915641,18.53551 15.8263566,19.0876231 L15.828363,19.0876231 C18.9964432,19.9038767 21.7211126,21.8640769 23.4967624,24.6067684 L23.7515732,25 L24.2090287,24.8828249 C26.3458276,24.3287258 28.6551756,24.3307118 30.7899681,24.8828249 L31.2474236,25 L31.5022344,24.6067684 C33.2798906,21.8640769 36.0025536,19.9038767 39.1706338,19.0876231 C41.3074327,18.53551 43.6167807,18.53551 45.7515732,19.0876231 L46.2090287,19.2047982 L46.4638395,18.8115666 C48.2435021,16.0688751 50.9641587,14.1086749 54.1322389,13.2924214 L55.0010032,13.0680013 L54.5154583,12.3212583 Z" id="Fill-1"></path>
                            </g>
                        </g>
                    </g>
                </g>
            </g>
        </g>
    </g>
</svg>