<?xml version="1.0" encoding="UTF-8"?>
<svg width="114px" height="84px" viewBox="0 0 114 84" version="1.1" xmlns="http://www.w3.org/2000/svg" xmlns:xlink="http://www.w3.org/1999/xlink">
    <title>返回</title>
    <g id="武进名人全息馆20230712✅" stroke="none" stroke-width="1" fill="none" fill-rule="evenodd" opacity="0.8">
        <g id="武进名人全息馆-所有名人" transform="translate(-48.000000, -37.000000)">
            <g id="返回-2" transform="translate(50.000000, 39.000000)">
                <g id="返回" transform="translate(0.000000, 0.000000)">
                    <g id="编组" stroke="#D5B270">
                        <path d="M74.5160084,-9.15509028 C63.1975719,-9.15509028 55.0014628,-14.9990536 55.0014628,-14.9990536 C55.0014628,-14.9990536 48.0870497,-9.15509028 35.4820988,-9.15509028 C22.8867847,-9.15509028 14.9990536,-1.69552758 14.9990536,7.50428014 L14.9990536,6.23447133 L14.9990536,72.5005139 C14.9990536,81.6955276 22.8867847,89.1598843 35.4820988,89.1598843 C48.0870497,89.1598843 55.0014628,94.9990536 55.0014628,94.9990536 C55.0014628,94.9990536 63.1975719,89.1598843 74.5160084,89.1598843 C85.8296264,89.1598843 94.9990536,81.6955276 94.9990536,72.5005139 L94.9990536,6.23447133 L94.9990536,7.50428014 C94.9990536,-1.69552758 85.8296264,-9.15509028 74.5160084,-9.15509028 Z" id="Stroke-1" stroke-width="3" transform="translate(54.999054, 40.000000) rotate(-90.000000) translate(-54.999054, -40.000000) "></path>
                        <path d="M54.8819375,89.6912507 C49.8129741,87.5770687 42.1709817,85.6115027 32.2209726,85.0985379 C22.6708913,84.5999553 19.0763602,77.0732757 19.0763602,72.2983885 L19.0763602,9.512218 C19.0763602,3.09296707 23.9670426,-3.70980894 32.6064451,-3.94951211 C42.7732825,-4.22756779 50.073168,-6.80197985 54.8819375,-9.37639191 C59.6039757,-5.90548999 68.2626519,-4.22756779 77.051425,-3.88718928 C84.5392284,-3.59475141 90.191219,2.78135295 90.191219,9.512218 L90.191219,72.2983885 C90.191219,78.0512647 84.53441,84.5999553 77.051425,85.0985379 C67.8145401,85.707384 60.1436372,87.1264267 54.8819375,89.6912507 Z" id="Stroke-3" stroke-width="1.224" fill="#07292E" opacity="0.8" transform="translate(54.633790, 40.157429) rotate(-90.000000) translate(-54.633790, -40.157429) "></path>
                    </g>
                    <path d="M65.0681762,42.2222024 C65.0475406,42.2429446 65.0191094,42.2481446 64.9985885,42.2677313 L44.4138921,65.0703463 C43.1704862,66.2976607 41.1662594,66.3119318 39.9397631,65.1002752 C38.7132096,63.8885607 38.7261068,61.9113491 39.9707164,60.682648 L58.6026029,40.043231 L39.9332859,19.3634274 C38.6899946,18.1348996 38.6886762,16.1458436 39.9307064,14.9186447 C41.174055,13.692717 43.188657,13.6939881 44.4332666,14.9212447 L65.0668578,37.7785753 C66.3102064,39.005832 66.3114674,40.9961591 65.0681188,42.2221446 L65.0681762,42.2222024 Z" id="路径" fill="#C6AC7E" transform="translate(52.500000, 40.000000) scale(-1, 1) translate(-52.500000, -40.000000) "></path>
                </g>
            </g>
        </g>
    </g>
</svg>