<?xml version="1.0" encoding="UTF-8"?>
<svg width="46px" height="39px" viewBox="0 0 46 39" version="1.1" xmlns="http://www.w3.org/2000/svg" xmlns:xlink="http://www.w3.org/1999/xlink">
    <title>馆 logo</title>
    <g id="武进名人全息馆20230712✅" stroke="none" stroke-width="1" fill="none" fill-rule="evenodd">
        <g id="武进名人全息馆首页" transform="translate(-45.000000, -24.000000)">
            <g id="馆-logo" transform="translate(45.000000, 24.000000)">
                <g transform="translate(0.000000, -0.000000)">
                    <path d="M2.64705884,15.6908726 L7.94117647,15.6908726 L7.94117647,36.6120361 L10.5882353,36.6120361 L10.5882353,15.6908726 L14.5588235,15.6908726 L14.5588235,13.0757272 L2.64705884,13.0757272 L2.64705884,15.6908726 Z M34.0882353,15.6908726 L34.0882353,36.6120361 L36.7352941,36.6120361 L36.7352941,15.6908726 L40.7058824,15.6908726 L40.7058824,13.0757272 L28.7941176,13.0757272 L28.7941176,15.6908726 L34.0882353,15.6908726 Z M42.0294118,6.53786358 C41.5,7.45316447 40.5735294,9.15300903 39.3823529,9.15300903 L31.4411765,9.15300903 L31.4411765,2.61514545 L34.0882353,2.61514545 L34.0882353,0 L28.7941176,0 L28.7941176,1.30757272 L14.5588235,1.30757272 L14.5588235,0 L9.26470589,0 L9.26470589,2.61514545 L11.9117647,2.61514545 L11.9117647,9.15300903 L3.97058822,9.15300903 C2.77941176,9.15300903 1.85294115,7.4531645 1.32352942,6.53786358 L0,8.36846539 C0.132352923,8.62997994 0.132352923,8.76073719 0.264705884,9.02225173 C1.19117646,10.591339 2.11764707,11.8989117 3.97058822,11.8989117 L14.5588235,11.8989117 L14.5588235,9.28376628 L28.7941176,9.28376628 L28.7941176,11.8989117 L39.3823529,11.8989117 C41.2352941,11.8989117 42.1617647,10.7220963 43.0882353,9.15300903 C43.2205882,9.02225177 43.3529412,8.76073723 43.3529412,8.49922264 L42.0294118,6.53786358 Z M28.7941176,6.53786358 L14.5588235,6.53786358 L14.5588235,3.92271813 L28.7941176,3.92271813 L28.7941176,6.53786358 Z M46,37.9510934 L5.29411764,37.9510934" id="形状" fill="#DBBC84" fill-rule="nonzero"></path>
                    <path d="M19.7941177,19.2287362 L16.6176471,19.2287362 C15.4264706,19.2287362 15.1617647,19.4902507 15.1617647,20.6670662 L15.1617647,23.9359979 C15.1617647,25.1128134 15.4264706,25.374328 16.6176471,25.374328 L19.7941177,25.374328 C20.9852941,25.374328 21.25,25.1128134 21.25,23.9359979 L21.25,20.6670662 C21.25,19.4902507 20.9852941,19.2287362 19.7941177,19.2287362 Z" id="路径" fill="#FFCE42"></path>
                    <path d="M19.7941177,27.2049298 L16.6176471,27.2049298 C15.4264706,27.2049298 15.1617647,27.4664443 15.1617647,28.6432598 L15.1617647,31.9121915 C15.1617647,33.089007 15.4264706,33.3505215 16.6176471,33.3505215 L19.7941177,33.3505215 C20.9852941,33.3505215 21.25,33.089007 21.25,31.9121915 L21.25,28.6432598 C21.25,27.4664443 20.9852941,27.2049298 19.7941177,27.2049298 Z" id="路径" fill="#4D8BF5"></path>
                    <path d="M28,27.2049298 L24.8235294,27.2049298 C23.632353,27.2049298 23.3676471,27.4664443 23.3676471,28.6432598 L23.3676471,31.9121915 C23.3676471,33.089007 23.632353,33.3505215 24.8235294,33.3505215 L28,33.3505215 C29.1911764,33.3505215 29.4558824,33.089007 29.4558824,31.9121915 L29.4558824,28.6432598 C29.4558824,27.4664443 29.1911765,27.2049298 28,27.2049298 Z" id="路径" fill="#18A15F"></path>
                    <path d="M28,19.2287362 L24.8235294,19.2287362 C23.632353,19.2287362 23.3676471,19.4902507 23.3676471,20.6670662 L23.3676471,23.9359979 C23.3676471,25.1128134 23.632353,25.374328 24.8235294,25.374328 L28,25.374328 C29.1911764,25.374328 29.4558824,25.1128134 29.4558824,23.9359979 L29.4558824,20.6670662 C29.4558824,19.4902507 29.1911765,19.2287362 28,19.2287362 Z" id="路径" fill="#DD5044"></path>
                </g>
            </g>
        </g>
    </g>
</svg>