<?xml version="1.0" encoding="UTF-8"?>
<svg width="183px" height="25px" viewBox="0 0 183 25" version="1.1" xmlns="http://www.w3.org/2000/svg" xmlns:xlink="http://www.w3.org/1999/xlink">
    <title>武进名人全息馆</title>
    <g id="武进名人全息馆20230712✅" stroke="none" stroke-width="1" fill="none" fill-rule="evenodd">
        <g id="武进名人全息馆首页" transform="translate(-97.000000, -30.000000)" fill="#DBBC84" fill-rule="nonzero">
            <g id="武进名人全息馆-2" transform="translate(97.000000, 30.000000)">
                <path d="M22.172,24.5608 C23.3864,24.5608 24.3104,22.7656 24.9176,19.228 L22.436,17.8552 C22.1984,19.9408 21.9608,20.9968 21.7496,20.9968 C21.4328,20.9968 21.0104,20.416 20.456,19.3072 C19.8752,18.1456 19.3208,16.2448 18.7928,13.6576 C18.5288,12.4432 18.344,10.8856 18.212,8.932 L24.548,8.932 L24.548,6.2656 L18.0536,6.2656 C17.948,4.5232 17.8952,2.5432 17.8952,0.3256 L15.1232,0.3256 C15.1232,2.4376 15.1496,4.4176 15.2552,6.2656 L1.0256,6.2656 L1.0256,8.932 L15.44,8.932 C15.6248,11.2024 15.9152,13.1296 16.2848,14.7664 C17.024,18.1456 17.948,20.6008 19.0568,22.1584 C20.1656,23.7424 21.1952,24.5608 22.172,24.5608 Z M21.5912,5.6848 L23.8352,4.5232 C23.0432,2.992 22.1456,1.6192 21.1424,0.3784 L18.872,1.408 C19.8752,2.6488 20.7728,4.0744 21.5912,5.6848 Z M13.2752,4.444 L13.2752,1.8832 L2.9792,1.8832 L2.9792,4.444 L13.2752,4.444 Z M1.052,24.2968 C6.4904,23.5048 11.3216,22.4752 15.5984,21.1816 L15.5984,18.568 C14.0672,19.0168 12.4568,19.4392 10.7408,19.8088 L10.7408,15.928 L14.8856,15.928 L14.8856,13.3936 L10.7408,13.3936 L10.7408,10.0408 L7.9952,10.0408 L7.9952,20.3896 C7.2032,20.548 6.3584,20.68 5.5136,20.8384 L5.5136,12.1792 L2.8736,12.1792 L2.8736,21.2608 C2.1608,21.3664 1.4216,21.4456 0.6824,21.5512 L1.052,24.2968 Z M47.0672,20.8384 L47.0672,13.816 L50.948,13.816 L50.948,11.2288 L47.0672,11.2288 L47.0672,6.7672 L50.1032,6.7672 L50.1032,4.2064 L47.0672,4.2064 L47.0672,0.3256 L44.3744,0.3256 L44.3744,4.2064 L41.048,4.2064 L41.048,0.2728 L38.3816,0.2728 L38.3816,4.2064 L35.5832,4.2064 L35.5832,6.7672 L38.3816,6.7672 L38.3816,8.5624 C38.3816,9.5128 38.3288,10.384 38.2232,11.2288 L34.6592,11.2288 L34.6592,13.816 L37.6952,13.816 C37.1144,15.796 36.1376,17.2744 34.7648,18.2776 L36.428,20.4688 C38.3552,19.0168 39.6752,16.7992 40.4144,13.816 L44.3744,13.816 L44.3744,20.8384 L47.0672,20.8384 Z M32.1512,6.6088 L34.1312,4.6552 C32.9168,3.2824 31.4384,1.9096 29.696,0.5368 L27.7952,2.332 C29.696,3.8632 31.148,5.2888 32.1512,6.6088 Z M44.3744,11.2288 L40.8632,11.2288 C40.9688,10.1992 41.048,9.0904 41.048,7.9288 L41.048,6.7672 L44.3744,6.7672 L44.3744,11.2288 Z M29.4848,24.8776 C30.8048,22.5016 31.7024,21.34 32.204,21.34 C32.5208,21.34 32.8376,21.5512 33.1808,22 C33.9464,22.8976 34.844,23.5048 35.9,23.8216 C37.0088,24.0856 38.3816,24.244 40.0712,24.2704 C41.7344,24.2968 43.292,24.3232 44.7176,24.3232 L50.7632,24.3232 L51.4232,21.604 C50.7104,21.6568 49.6808,21.7096 48.3344,21.7624 C46.9616,21.7624 45.6416,21.7888 44.3216,21.7888 C42.3152,21.7888 40.5464,21.7624 39.0416,21.736 C37.5104,21.6832 36.3752,21.472 35.6096,21.076 C35.0024,20.7328 34.3952,20.2048 33.8144,19.5184 L33.5504,19.2544 L33.5504,9.196 L27.5048,9.196 L27.5048,11.7304 L30.9896,11.7304 L30.9896,18.964 C29.9336,19.5448 28.772,20.8912 27.452,23.0032 L29.4848,24.8776 Z M62.2208,24.6928 L62.2208,23.32 L73.124,23.32 L73.124,24.6928 L75.9224,24.6928 L75.9224,13.0504 L66.128,13.0504 C70.4048,10.8592 73.388,8.14 75.0248,4.8664 L75.0248,2.4376 L65.3096,2.4376 C65.732,1.8304 66.1016,1.2232 66.4184,0.5896 L63.3824,0.22 C61.8248,2.9128 58.8152,5.2096 54.38,7.0576 L56.228,9.46 C58.9736,8.14 61.2176,6.6616 63.0128,5.0248 L71.8832,5.0248 C70.7744,6.82 69.0584,8.4304 66.7616,9.8296 C65.6792,8.932 64.2536,7.9288 62.5112,6.82 L60.1088,8.2984 C61.8248,9.2752 63.2504,10.1992 64.3592,11.0968 C61.4552,12.4168 57.8384,13.4728 53.4824,14.2648 L54.908,16.9048 C56.492,16.5352 58.0232,16.1128 59.4488,15.6904 L59.4488,24.6928 L62.2208,24.6928 Z M73.124,20.6536 L62.2208,20.6536 L62.2208,15.6112 L73.124,15.6112 L73.124,20.6536 Z M81.2552,24.6928 C86.7464,21.1552 90.3632,16.6936 92.1056,11.308 C94.1384,16.8784 97.6232,21.3136 102.56,24.64 L104.408,22.2112 C98.4152,18.5416 94.64,13.2352 93.1088,6.292 C93.2144,4.6552 93.2936,2.6752 93.2936,0.352 L90.4952,0.352 C90.4952,1.3552 90.4688,2.728 90.4688,4.4968 C90.2576,12.0736 86.6408,17.9872 79.5656,22.2112 L81.2552,24.6928 Z M129.5408,24.0592 L129.5408,21.3664 L119.7992,21.3664 L119.7992,17.4592 L127.1384,17.4592 L127.1384,14.7928 L119.7992,14.7928 L119.7992,11.0968 L125.7656,11.0968 L125.7656,8.7208 C126.9272,9.4336 128.1416,10.0936 129.4088,10.7008 L130.7816,8.2456 C126.4784,6.292 122.6768,3.6256 119.3768,0.2464 L117.4232,0.2464 C114.3608,3.4672 110.5328,6.1336 105.9392,8.2984 L107.2856,10.7536 C108.6056,10.12 109.8464,9.4336 111.0344,8.6944 L111.0344,11.0968 L117.0008,11.0968 L117.0008,14.7928 L109.6352,14.7928 L109.6352,17.4592 L117.0008,17.4592 L117.0008,21.3664 L107.2856,21.3664 L107.2856,24.0592 L129.5408,24.0592 Z M125.3168,8.4304 L111.4568,8.4304 C114.1496,6.7408 116.4728,4.84 118.4,2.7544 C120.4064,4.8928 122.7032,6.7936 125.3168,8.4304 Z M153.4328,15.532 L153.4328,2.0416 L145.196,2.0416 C145.46,1.54 145.6712,1.012 145.8296,0.4576 L142.9256,0.0616 C142.7672,0.748 142.5296,1.408 142.2128,2.0416 L136.3784,2.0416 L136.3784,15.532 L153.4328,15.532 Z M150.7664,5.8696 L139.0448,5.8696 L139.0448,4.3912 L150.7664,4.3912 L150.7664,5.8696 Z M150.7664,9.5128 L139.0448,9.5128 L139.0448,8.0344 L150.7664,8.0344 L150.7664,9.5128 Z M150.7664,13.2088 L139.0448,13.2088 L139.0448,11.6776 L150.7664,11.6776 L150.7664,13.2088 Z M145.9088,20.7328 L147.9944,19.3072 C147.308,18.3304 146.3312,17.1952 145.1168,15.8752 L143.084,17.1424 C144.272,18.4624 145.2224,19.6768 145.9088,20.7328 Z M154.832,23.32 L157.0496,21.7888 C156.2048,20.2576 155.0432,18.4624 153.512,16.4032 L151.3472,17.7496 C152.8256,19.8088 153.9872,21.6568 154.832,23.32 Z M148.2584,24.3496 C149.3144,24.3496 150.1064,24.1384 150.6344,23.7424 C151.1888,23.32 151.5848,21.9736 151.8224,19.7032 L149.1824,18.832 C149.1032,20.3104 148.9448,21.208 148.6808,21.4984 C148.4696,21.7624 148.1528,21.9208 147.7304,21.9208 L142.3448,21.9208 C141.8168,21.9208 141.5792,21.6304 141.5792,21.1024 L141.5792,16.9576 L138.7808,16.9576 L138.7808,21.7096 C138.7808,23.452 139.7048,24.3496 141.5528,24.3496 L148.2584,24.3496 Z M134.9792,23.9008 C136.0616,22.1056 136.9064,19.9672 137.5136,17.512 L134.9264,16.984 C134.504,18.8848 133.7384,20.7064 132.656,22.396 L134.9792,23.9008 Z M181.8392,24.7456 L181.8392,16.0864 L172.652,16.0864 L172.652,14.2384 L181.1528,14.2384 L181.1528,7.9816 L182.6312,7.9816 L182.6312,2.7544 L176.7968,2.7544 C176.5328,1.804 176.2688,0.9592 175.9784,0.1672 L173.2856,0.5896 C173.6024,1.2496 173.8928,1.9624 174.1568,2.7544 L168.6392,2.7544 L168.6392,7.9816 L170.0648,7.9816 L170.0648,24.7192 L172.652,24.7192 L172.652,23.584 L179.2784,23.584 L179.2784,24.7456 L181.8392,24.7456 Z M160.508,12.3112 C161.5376,10.8856 162.4088,9.1168 163.0952,7.0576 L165.1808,7.0576 C164.8376,7.8496 164.468,8.5096 164.0456,9.0904 L165.9992,10.648 C166.7384,9.592 167.4248,8.2456 168.032,6.6616 L168.032,4.5232 L163.808,4.5232 C164.072,3.4144 164.2832,2.2 164.4944,0.9328 L161.8016,0.484 C161.2736,4.4968 160.244,7.7176 158.7128,10.12 L160.508,12.3112 Z M180.044,6.952 L171.2264,6.952 L171.2264,5.236 L180.044,5.236 L180.044,6.952 Z M178.5656,11.9416 L172.652,11.9416 L172.652,9.2752 L178.5656,9.2752 L178.5656,11.9416 Z M162.6728,24.3232 C164.7584,23.5048 166.6064,22.4488 168.2168,21.1816 L167.6888,18.6208 C166.7912,19.5184 165.8672,20.2312 164.9168,20.812 L164.9168,10.12 L162.2768,10.12 L162.2768,20.6272 C162.2768,21.2608 162.0392,21.7096 161.5904,22.0264 L162.6728,24.3232 Z M179.2784,21.208 L172.652,21.208 L172.652,18.4624 L179.2784,18.4624 L179.2784,21.208 Z" id="武进名人全息馆"></path>
            </g>
        </g>
    </g>
</svg>