<?xml version="1.0" encoding="UTF-8"?>
<svg width="409px" height="78px" viewBox="0 0 409 78" version="1.1" xmlns="http://www.w3.org/2000/svg" xmlns:xlink="http://www.w3.org/1999/xlink">
    <title>搜索</title>
    <g id="武进名人全息馆20230712✅" stroke="none" stroke-width="1" fill="none" fill-rule="evenodd">
        <g id="武进名人全息馆-所有名人" transform="translate(-1439.000000, -41.000000)">
            <g id="搜索-2" transform="translate(1439.000000, 41.000000)">
                <g id="搜索" transform="translate(0.169466, 0.600000)">
                    <g id="所有名人-2" transform="translate(-0.000000, 0.000000)" fill="#07292E" opacity="0.8">
                        <g id="所有名人" transform="translate(0.000000, 0.000000)">
                            <g id="编组" transform="translate(0.000000, 0.000000)">
                                <path d="M204.248148,242.557429 C199.179184,239.5708 188.537192,236.79655 178.587183,236.072539 C169.037102,235.368827 165.442571,224.74548 165.442571,218.006082 L165.442571,-138.782751 C165.442571,-147.843045 170.333253,-157.444656 178.972656,-157.782979 C189.139493,-158.175434 199.439378,-161.809025 204.248148,-165.442571 C208.970186,-160.543696 220.628862,-158.175434 229.417635,-157.695015 C236.905439,-157.282261 242.557429,-148.282865 242.557429,-138.782751 L242.557429,218.006082 C242.557429,226.125838 236.90062,235.368827 229.417635,236.072539 C220.18075,236.93188 209.509848,238.934753 204.248148,242.557429 Z" id="Stroke-3" transform="translate(204.000000, 38.557429) rotate(-90.000000) translate(-204.000000, -38.557429) "></path>
                            </g>
                        </g>
                    </g>
                    <g id="搜索-(1)" transform="translate(20.830534, 21.400000)" fill="#27474C" fill-rule="nonzero">
                        <path d="M26.8855956,25.3390258 L34.6796949,33.1331251 C35.1067684,33.5601986 35.1067684,34.2526215 34.6796949,34.6796949 C34.2526215,35.1067684 33.5601986,35.1067684 33.1331251,34.6796949 L25.3390258,26.8855956 C22.5581346,29.3020237 18.9966533,30.6303431 15.3125722,30.6251445 C6.85565733,30.6251445 0,23.7694871 0,15.3125722 C0,6.85565733 6.85565733,0 15.3125722,0 C23.7694871,0 30.6251445,6.85565738 30.6251445,15.3125722 C30.6251445,19.1472778 29.2152941,22.6527631 26.8855956,25.3390258 Z M15.3125722,28.4376342 C22.5608877,28.4376342 28.4376342,22.5608877 28.4376342,15.3125722 C28.4376342,8.06425676 22.5608877,2.1875103 15.3125722,2.1875103 C8.06425676,2.1875103 2.1875103,8.06425681 2.1875103,15.3125722 C2.1875103,22.5608877 8.06425681,28.4376342 15.3125722,28.4376342 Z" id="形状"></path>
                    </g>
                </g>
            </g>
        </g>
    </g>
</svg>