<?xml version="1.0" encoding="UTF-8"?>
<svg width="70px" height="86px" viewBox="0 0 70 86" version="1.1" xmlns="http://www.w3.org/2000/svg" xmlns:xlink="http://www.w3.org/1999/xlink">
    <title>添加图片</title>
    <g id="全景-肖迪202305008✅" stroke="none" stroke-width="1" fill="none" fill-rule="evenodd">
        <g id="项目设置-20230508" transform="translate(-832.000000, -177.000000)">
            <g id="编组-17备份" transform="translate(682.000000, 82.000000)">
                <g id="位图" transform="translate(44.000000, 0.000000)">
                    <g id="添加图片" transform="translate(106.000000, 95.000000)">
                        <g fill="#A1A1A1" fill-rule="nonzero">
                            <path d="M50.9984375,35.1242188 L42.25,28.5632813 C40.9242187,27.5695312 39.0765625,27.5695312 37.7507812,28.5632813 L30.0492187,34.3382812 L19.78125,26.1242188 C18.49375,25.09375 16.7125,25.015625 15.3429687,25.9375 L5,32.8921875 L5,5 L60,5 L60,32.5 C60,33.8804687 61.1195313,35 62.5,35 C63.8804687,35 65,33.8804687 65,32.5 L65,4.78984375 C65,2.1484375 62.8515625,0 60.2101563,0 L4.78984375,0 C2.1484375,0 0,2.1484375 0,4.78984375 L0,50.2101563 C0,52.8515625 2.1484375,55 4.78984375,55 L42.5,55 C43.8804687,55 45,53.8804687 45,52.5 C45,51.1195313 43.8804687,50 42.5,50 L5,50 L5,38.91875 L17.371875,30.6 L29.9515625,40.6625 L40,33.125 L47.9984375,39.1234375 C49.1070313,39.9570312 50.6726563,39.7273437 51.4984375,38.6242187 C52.3265625,37.5195312 52.103125,35.9523437 50.9984375,35.1242188 Z" id="路径"></path>
                            <path d="M40,17.5 C40,21.6359375 43.3640625,25 47.5,25 C51.6359375,25 55,21.6359375 55,17.5 C55,13.3640625 51.6359375,10 47.5,10 C43.3640625,10 40,13.3640625 40,17.5 Z M50,17.5 C50,18.878125 48.878125,20 47.5,20 C46.121875,20 45,18.878125 45,17.5 C45,16.121875 46.121875,15 47.5,15 C48.878125,15 50,16.121875 50,17.5 Z M67.5,47.5 L62.5,47.5 L62.5,42.5 C62.5,41.1195313 61.3804687,40 60,40 C58.6195313,40 57.5,41.1195313 57.5,42.5 L57.5,47.5 L52.5,47.5 C51.1195313,47.5 50,48.6195313 50,50 C50,51.3804687 51.1195313,52.5 52.5,52.5 L57.5,52.5 L57.5,57.5 C57.5,58.8804687 58.6195313,60 60,60 C61.3804687,60 62.5,58.8804687 62.5,57.5 L62.5,52.5 L67.5,52.5 C68.8804688,52.5 70,51.3804687 70,50 C70,48.6195313 68.8804688,47.5 67.5,47.5 Z" id="形状"></path>
                        </g>
                        <text id="请添加图片" font-family="PingFangSC-Regular, PingFang SC" font-size="14" font-weight="normal" fill="#C4C4C4">
                            <tspan x="0" y="81">请添加图片</tspan>
                        </text>
                    </g>
                </g>
            </g>
        </g>
    </g>
</svg>